<svg xmlns="http://www.w3.org/2000/svg" viewBox="0 0 24 24" fill="none" stroke="currentColor" stroke-width="2" stroke-linecap="round" stroke-linejoin="round" class="feather feather-phone">
    <path d="M23 3c-1.59-.663-3.298-.977-5-.97-1.912.007-3.824.327-5.5 1-2.28 1-4.234 2.954-5.235 5.236-.587 1.295-.915 2.68-.982 4.134-.026.754.111 1.51.373 2.223 1.778 4.922 10.096 11.71 15.99 15.19 1.178.745 2.758-.092 3.22-1.293 1.35-3.494.89-7.63-1.787-10.308-1.616-1.75-3.944-2.614-6.3-2.603-1.895 0-3.78.707-5.236 2.077-1.19 1.11-2.123 2.526-2.77 4.156-.536 1.38-.809 2.872-.814 4.33-.007 3.06 1.18 5.3 3.463 7.482C5.82 23.775 9.055 25 12.012 25c2.96 0 7.066-2.21 10.623-5.556C24.714 15.314 26 12.157 26 8.916c0-2.534-.81-5.256-2.5-7.548z"></path>
</svg>